# xmcd
#
# Track frame offsets:
#	150
#	13908
#	28707
#	44895
#	61236
#	78977
#	98054
#	114741
#	128231
#	144529
#	158572
#	173650
#	194747
#	209229
#	225108
#	241130
#	257343
#	275395
#	292358
#	306708
#
# Disc length: 4316 seconds
#
# Revision: 0
# Processed by: cddbd v1.5.2PL0 Copyright (c) Steve Scherf et al.
# Submitted via: EZCDAudioConverter 2.1.5.1
#
DISCID=2b10da14
DTITLE=Various Artist - Intiaanikesä Vol3 cd3
DYEAR=2011
DGENRE=
TTITLE0=Scooter - Fire
TTITLE1=Milk and Sugar Vs. Vaya Con Dios - Hey (Nah Neh Nah) (Milk and Sugar Radio
TTITLE1=Version)
TTITLE2=Pitbull - Bon Bon
TTITLE3=Paulina Rubio - Baila Casanova
TTITLE4=Boney M. - Sunny
TTITLE5=Nylon Beat - Rakastuin Mä Looseriin
TTITLE6=Men At Work - Down Under
TTITLE7=Ruben Gomez - Baila Baila Con Migo
TTITLE8=DJ Ötzi - Hey Baby
TTITLE9=Pate Mustajärvi - Ukkometso
TTITLE10=PMMP - Pikkuveli
TTITLE11=Blondie - Tide Is High
TTITLE12=Leila K - Murderer
TTITLE13=Pandora feat. Stacy - Why
TTITLE14=Nicko - Last Summer (Original Radio Edit)
TTITLE15=Technotronic - Pump Up The Jam
TTITLE16=DJ Bobo - Let The Dream Come True
TTITLE17=A-Tyyppi - Ihanaa Leijonat Ihanaa (Siperia opettaa remix)
TTITLE18=Jimmy Cliff - I Can See Clearly Now
TTITLE19=Joe Cocker - Summer In The City
EXTD=
EXTT0=
EXTT1=
EXTT2=
EXTT3=
EXTT4=
EXTT5=
EXTT6=
EXTT7=
EXTT8=
EXTT9=
EXTT10=
EXTT11=
EXTT12=
EXTT13=
EXTT14=
EXTT15=
EXTT16=
EXTT17=
EXTT18=
EXTT19=
PLAYORDER=
